solid cylinder
   facet normal -9.990494e-001 3.082397e-002 3.082397e-002
      outer loop
         vertex 6.416366e-001 5.995520e+001 1.660212e+002
         vertex 0.000000e+000 1.590990e+002 5.303301e+001
         vertex 0.000000e+000 5.303301e+001 1.590990e+002
      endloop
   endfacet
   facet normal -9.990494e-001 -3.082397e-002 -3.082397e-002
      outer loop
         vertex 0.000000e+000 5.303301e+001 1.590990e+002
         vertex 0.000000e+000 1.590990e+002 5.303301e+001
         vertex 6.416366e-001 1.521768e+002 4.611081e+001
      endloop
   endfacet
   facet normal -9.961922e-001 -6.164795e-002 -6.164795e-002
      outer loop
         vertex 0.000000e+000 5.303301e+001 1.590990e+002
         vertex 6.416366e-001 1.521768e+002 4.611081e+001
         vertex 6.416366e-001 4.611081e+001 1.521768e+002
      endloop
   endfacet
   facet normal -9.848126e-001 -1.227685e-001 -1.227685e-001
      outer loop
         vertex 6.416366e-001 4.611081e+001 1.521768e+002
         vertex 6.416366e-001 1.521768e+002 4.611081e+001
         vertex 2.555564e+000 1.453731e+002 3.930706e+001
      endloop
   endfacet
   facet normal -9.762900e-001 -1.530651e-001 -1.530651e-001
      outer loop
         vertex 6.416366e-001 4.611081e+001 1.521768e+002
         vertex 2.555564e+000 1.453731e+002 3.930706e+001
         vertex 2.555564e+000 3.930706e+001 1.453731e+002
      endloop
   endfacet
   facet normal -9.537253e-001 -2.126125e-001 -2.126125e-001
      outer loop
         vertex 2.555564e+000 3.930706e+001 1.453731e+002
         vertex 2.555564e+000 1.453731e+002 3.930706e+001
         vertex 5.709037e+000 1.388042e+002 3.273816e+001
      endloop
   endfacet
   facet normal -9.396831e-001 -2.418632e-001 -2.418632e-001
      outer loop
         vertex 2.555564e+000 3.930706e+001 1.453731e+002
         vertex 5.709037e+000 1.388042e+002 3.273816e+001
         vertex 5.709037e+000 3.273816e+001 1.388042e+002
      endloop
   endfacet
   facet normal -9.063195e-001 -2.988185e-001 -2.988185e-001
      outer loop
         vertex 5.709037e+000 3.273816e+001 1.388042e+002
         vertex 5.709037e+000 1.388042e+002 3.273816e+001
         vertex 1.004810e+001 1.325825e+002 2.651650e+001
      endloop
   endfacet
   facet normal -8.869979e-001 -3.265229e-001 -3.265229e-001
      outer loop
         vertex 5.709037e+000 3.273816e+001 1.388042e+002
         vertex 1.004810e+001 1.325825e+002 2.651650e+001
         vertex 1.004810e+001 2.651650e+001 1.325825e+002
      endloop
   endfacet
   facet normal -8.434063e-001 -3.799117e-001 -3.799117e-001
      outer loop
         vertex 1.004810e+001 2.651650e+001 1.325825e+002
         vertex 1.004810e+001 1.325825e+002 2.651650e+001
         vertex 1.549850e+001 1.268146e+002 2.074856e+001
      endloop
   endfacet
   facet normal -8.191361e-001 -4.055958e-001 -4.055958e-001
      outer loop
         vertex 1.004810e+001 2.651650e+001 1.325825e+002
         vertex 1.549850e+001 1.268146e+002 2.074856e+001
         vertex 1.549850e+001 2.074856e+001 1.268146e+002
      endloop
   endfacet
   facet normal -7.660623e-001 -4.545044e-001 -4.545044e-001
      outer loop
         vertex 1.549850e+001 2.074856e+001 1.268146e+002
         vertex 1.549850e+001 1.268146e+002 2.074856e+001
         vertex 2.196699e+001 1.215990e+002 1.553301e+001
      endloop
   endfacet
   facet normal -7.372586e-001 -4.777288e-001 -4.777288e-001
      outer loop
         vertex 1.549850e+001 2.074856e+001 1.268146e+002
         vertex 2.196699e+001 1.215990e+002 1.553301e+001
         vertex 2.196699e+001 1.553301e+001 1.215990e+002
      endloop
   endfacet
   facet normal -6.756107e-001 -5.213206e-001 -5.213206e-001
      outer loop
         vertex 2.196699e+001 1.553301e+001 1.215990e+002
         vertex 2.196699e+001 1.215990e+002 1.553301e+001
         vertex 2.934290e+001 1.170251e+002 1.095909e+001
      endloop
   endfacet
   facet normal -6.427664e-001 -5.416878e-001 -5.416878e-001
      outer loop
         vertex 2.196699e+001 1.553301e+001 1.215990e+002
         vertex 2.934290e+001 1.170251e+002 1.095909e+001
         vertex 2.934290e+001 1.095910e+001 1.170251e+002
      endloop
   endfacet
   facet normal -5.735992e-001 -5.792167e-001 -5.792167e-001
      outer loop
         vertex 2.934290e+001 1.095910e+001 1.170251e+002
         vertex 2.934290e+001 1.170251e+002 1.095909e+001
         vertex 3.750000e+001 1.131711e+002 7.105077e+000
      endloop
   endfacet
   facet normal -5.372762e-001 -5.963783e-001 -5.963783e-001
      outer loop
         vertex 2.934290e+001 1.095910e+001 1.170251e+002
         vertex 3.750000e+001 1.131711e+002 7.105077e+000
         vertex 3.750000e+001 7.105075e+000 1.131711e+002
      endloop
   endfacet
   facet normal -4.617732e-001 -6.272023e-001 -6.272023e-001
      outer loop
         vertex 3.750000e+001 7.105075e+000 1.131711e+002
         vertex 3.750000e+001 1.131711e+002 7.105077e+000
         vertex 4.629874e+001 1.101029e+002 4.036898e+000
      endloop
   endfacet
   facet normal -4.225931e-001 -6.408647e-001 -6.408647e-001
      outer loop
         vertex 3.750000e+001 7.105075e+000 1.131711e+002
         vertex 4.629874e+001 1.101029e+002 4.036898e+000
         vertex 4.629874e+001 4.036896e+000 1.101029e+002
      endloop
   endfacet
   facet normal -3.420462e-001 -6.644563e-001 -6.644563e-001
      outer loop
         vertex 4.629874e+001 4.036896e+000 1.101029e+002
         vertex 4.629874e+001 1.101029e+002 4.036898e+000
         vertex 5.558857e+001 1.078731e+002 1.807056e+000
      endloop
   endfacet
   facet normal -3.006793e-001 -6.743856e-001 -6.743856e-001
      outer loop
         vertex 4.629874e+001 4.036896e+000 1.101029e+002
         vertex 5.558857e+001 1.078731e+002 1.807056e+000
         vertex 5.558857e+001 1.807056e+000 1.078731e+002
      endloop
   endfacet
   facet normal -2.164667e-001 -6.903413e-001 -6.903413e-001
      outer loop
         vertex 5.558857e+001 1.807056e+000 1.078731e+002
         vertex 5.558857e+001 1.078731e+002 1.807056e+000
         vertex 6.521053e+001 1.065197e+002 4.537050e-001
      endloop
   endfacet
   facet normal -1.736208e-001 -6.963677e-001 -6.963677e-001
      outer loop
         vertex 5.558857e+001 1.807056e+000 1.078731e+002
         vertex 6.521053e+001 1.065197e+002 4.537050e-001
         vertex 6.521053e+001 4.537031e-001 1.065197e+002
      endloop
   endfacet
   facet normal -8.718336e-002 -7.044143e-001 -7.044143e-001
      outer loop
         vertex 6.521053e+001 4.537031e-001 1.065197e+002
         vertex 6.521053e+001 1.065197e+002 4.537050e-001
         vertex 7.500000e+001 1.060660e+002 0.000000e+000
      endloop
   endfacet
   facet normal -4.359168e-002 -7.064346e-001 -7.064346e-001
      outer loop
         vertex 6.521053e+001 4.537031e-001 1.065197e+002
         vertex 7.500000e+001 1.060660e+002 0.000000e+000
         vertex 7.500000e+001 0.000000e+000 1.060660e+002
      endloop
   endfacet
   facet normal 4.359168e-002 -7.064346e-001 -7.064346e-001
      outer loop
         vertex 7.500000e+001 0.000000e+000 1.060660e+002
         vertex 7.500000e+001 1.060660e+002 0.000000e+000
         vertex 8.478947e+001 1.065197e+002 4.537050e-001
      endloop
   endfacet
   facet normal 8.718336e-002 -7.044143e-001 -7.044143e-001
      outer loop
         vertex 7.500000e+001 0.000000e+000 1.060660e+002
         vertex 8.478947e+001 1.065197e+002 4.537050e-001
         vertex 8.478947e+001 4.537031e-001 1.065197e+002
      endloop
   endfacet
   facet normal 1.736209e-001 -6.963676e-001 -6.963676e-001
      outer loop
         vertex 8.478947e+001 4.537031e-001 1.065197e+002
         vertex 8.478947e+001 1.065197e+002 4.537050e-001
         vertex 9.441143e+001 1.078731e+002 1.807056e+000
      endloop
   endfacet
   facet normal 2.164667e-001 -6.903413e-001 -6.903413e-001
      outer loop
         vertex 8.478947e+001 4.537031e-001 1.065197e+002
         vertex 9.441143e+001 1.078731e+002 1.807056e+000
         vertex 9.441143e+001 1.807056e+000 1.078731e+002
      endloop
   endfacet
   facet normal 3.006793e-001 -6.743856e-001 -6.743856e-001
      outer loop
         vertex 9.441143e+001 1.807056e+000 1.078731e+002
         vertex 9.441143e+001 1.078731e+002 1.807056e+000
         vertex 1.037013e+002 1.101029e+002 4.036898e+000
      endloop
   endfacet
   facet normal 3.420462e-001 -6.644563e-001 -6.644563e-001
      outer loop
         vertex 9.441143e+001 1.807056e+000 1.078731e+002
         vertex 1.037013e+002 1.101029e+002 4.036898e+000
         vertex 1.037013e+002 4.036896e+000 1.101029e+002
      endloop
   endfacet
   facet normal 4.225931e-001 -6.408647e-001 -6.408647e-001
      outer loop
         vertex 1.037013e+002 4.036896e+000 1.101029e+002
         vertex 1.037013e+002 1.101029e+002 4.036898e+000
         vertex 1.125000e+002 1.131711e+002 7.105077e+000
      endloop
   endfacet
   facet normal 4.617732e-001 -6.272023e-001 -6.272023e-001
      outer loop
         vertex 1.037013e+002 4.036896e+000 1.101029e+002
         vertex 1.125000e+002 1.131711e+002 7.105077e+000
         vertex 1.125000e+002 7.105075e+000 1.131711e+002
      endloop
   endfacet
   facet normal 5.372762e-001 -5.963783e-001 -5.963783e-001
      outer loop
         vertex 1.125000e+002 7.105075e+000 1.131711e+002
         vertex 1.125000e+002 1.131711e+002 7.105077e+000
         vertex 1.206571e+002 1.170251e+002 1.095909e+001
      endloop
   endfacet
   facet normal 5.735992e-001 -5.792167e-001 -5.792167e-001
      outer loop
         vertex 1.125000e+002 7.105075e+000 1.131711e+002
         vertex 1.206571e+002 1.170251e+002 1.095909e+001
         vertex 1.206571e+002 1.095910e+001 1.170251e+002
      endloop
   endfacet
   facet normal 6.427664e-001 -5.416878e-001 -5.416878e-001
      outer loop
         vertex 1.206571e+002 1.095910e+001 1.170251e+002
         vertex 1.206571e+002 1.170251e+002 1.095909e+001
         vertex 1.280330e+002 1.215990e+002 1.553301e+001
      endloop
   endfacet
   facet normal 6.756107e-001 -5.213206e-001 -5.213206e-001
      outer loop
         vertex 1.206571e+002 1.095910e+001 1.170251e+002
         vertex 1.280330e+002 1.215990e+002 1.553301e+001
         vertex 1.280330e+002 1.553301e+001 1.215990e+002
      endloop
   endfacet
   facet normal 7.372586e-001 -4.777289e-001 -4.777289e-001
      outer loop
         vertex 1.280330e+002 1.553301e+001 1.215990e+002
         vertex 1.280330e+002 1.215990e+002 1.553301e+001
         vertex 1.345015e+002 1.268146e+002 2.074856e+001
      endloop
   endfacet
   facet normal 7.660623e-001 -4.545044e-001 -4.545044e-001
      outer loop
         vertex 1.280330e+002 1.553301e+001 1.215990e+002
         vertex 1.345015e+002 1.268146e+002 2.074856e+001
         vertex 1.345015e+002 2.074856e+001 1.268146e+002
      endloop
   endfacet
   facet normal 8.191361e-001 -4.055958e-001 -4.055958e-001
      outer loop
         vertex 1.345015e+002 2.074856e+001 1.268146e+002
         vertex 1.345015e+002 1.268146e+002 2.074856e+001
         vertex 1.399519e+002 1.325825e+002 2.651650e+001
      endloop
   endfacet
   facet normal 8.434064e-001 -3.799116e-001 -3.799116e-001
      outer loop
         vertex 1.345015e+002 2.074856e+001 1.268146e+002
         vertex 1.399519e+002 1.325825e+002 2.651650e+001
         vertex 1.399519e+002 2.651650e+001 1.325825e+002
      endloop
   endfacet
   facet normal 8.869980e-001 -3.265229e-001 -3.265229e-001
      outer loop
         vertex 1.399519e+002 2.651650e+001 1.325825e+002
         vertex 1.399519e+002 1.325825e+002 2.651650e+001
         vertex 1.442910e+002 1.388042e+002 3.273816e+001
      endloop
   endfacet
   facet normal 9.063195e-001 -2.988185e-001 -2.988185e-001
      outer loop
         vertex 1.399519e+002 2.651650e+001 1.325825e+002
         vertex 1.442910e+002 1.388042e+002 3.273816e+001
         vertex 1.442910e+002 3.273816e+001 1.388042e+002
      endloop
   endfacet
   facet normal 9.396831e-001 -2.418632e-001 -2.418632e-001
      outer loop
         vertex 1.442910e+002 3.273816e+001 1.388042e+002
         vertex 1.442910e+002 1.388042e+002 3.273816e+001
         vertex 1.474444e+002 1.453731e+002 3.930706e+001
      endloop
   endfacet
   facet normal 9.537253e-001 -2.126125e-001 -2.126125e-001
      outer loop
         vertex 1.442910e+002 3.273816e+001 1.388042e+002
         vertex 1.474444e+002 1.453731e+002 3.930706e+001
         vertex 1.474444e+002 3.930706e+001 1.453731e+002
      endloop
   endfacet
   facet normal 9.762900e-001 -1.530651e-001 -1.530651e-001
      outer loop
         vertex 1.474444e+002 3.930706e+001 1.453731e+002
         vertex 1.474444e+002 1.453731e+002 3.930706e+001
         vertex 1.493584e+002 1.521768e+002 4.611081e+001
      endloop
   endfacet
   facet normal 9.848126e-001 -1.227685e-001 -1.227685e-001
      outer loop
         vertex 1.474444e+002 3.930706e+001 1.453731e+002
         vertex 1.493584e+002 1.521768e+002 4.611081e+001
         vertex 1.493584e+002 4.611081e+001 1.521768e+002
      endloop
   endfacet
   facet normal 9.961922e-001 -6.164795e-002 -6.164795e-002
      outer loop
         vertex 1.493584e+002 4.611081e+001 1.521768e+002
         vertex 1.493584e+002 1.521768e+002 4.611081e+001
         vertex 1.500000e+002 1.590990e+002 5.303301e+001
      endloop
   endfacet
   facet normal 9.990494e-001 -3.082397e-002 -3.082397e-002
      outer loop
         vertex 1.493584e+002 4.611081e+001 1.521768e+002
         vertex 1.500000e+002 1.590990e+002 5.303301e+001
         vertex 1.500000e+002 5.303301e+001 1.590990e+002
      endloop
   endfacet
   facet normal 9.990494e-001 3.082397e-002 3.082397e-002
      outer loop
         vertex 1.500000e+002 5.303301e+001 1.590990e+002
         vertex 1.500000e+002 1.590990e+002 5.303301e+001
         vertex 1.493584e+002 1.660212e+002 5.995520e+001
      endloop
   endfacet
   facet normal 9.961922e-001 6.164795e-002 6.164795e-002
      outer loop
         vertex 1.500000e+002 5.303301e+001 1.590990e+002
         vertex 1.493584e+002 1.660212e+002 5.995520e+001
         vertex 1.493584e+002 5.995520e+001 1.660212e+002
      endloop
   endfacet
   facet normal 9.848126e-001 1.227685e-001 1.227685e-001
      outer loop
         vertex 1.493584e+002 5.995520e+001 1.660212e+002
         vertex 1.493584e+002 1.660212e+002 5.995520e+001
         vertex 1.474444e+002 1.728250e+002 6.675896e+001
      endloop
   endfacet
   facet normal 9.762900e-001 1.530651e-001 1.530651e-001
      outer loop
         vertex 1.493584e+002 5.995520e+001 1.660212e+002
         vertex 1.474444e+002 1.728250e+002 6.675896e+001
         vertex 1.474444e+002 6.675896e+001 1.728250e+002
      endloop
   endfacet
   facet normal 9.537253e-001 2.126125e-001 2.126125e-001
      outer loop
         vertex 1.474444e+002 6.675896e+001 1.728250e+002
         vertex 1.474444e+002 1.728250e+002 6.675896e+001
         vertex 1.442910e+002 1.793939e+002 7.332786e+001
      endloop
   endfacet
   facet normal 9.396831e-001 2.418632e-001 2.418632e-001
      outer loop
         vertex 1.474444e+002 6.675896e+001 1.728250e+002
         vertex 1.442910e+002 1.793939e+002 7.332786e+001
         vertex 1.442910e+002 7.332786e+001 1.793939e+002
      endloop
   endfacet
   facet normal 9.063195e-001 2.988185e-001 2.988185e-001
      outer loop
         vertex 1.442910e+002 7.332786e+001 1.793939e+002
         vertex 1.442910e+002 1.793939e+002 7.332786e+001
         vertex 1.399519e+002 1.856155e+002 7.954951e+001
      endloop
   endfacet
   facet normal 8.869979e-001 3.265229e-001 3.265229e-001
      outer loop
         vertex 1.442910e+002 7.332786e+001 1.793939e+002
         vertex 1.399519e+002 1.856155e+002 7.954951e+001
         vertex 1.399519e+002 7.954951e+001 1.856155e+002
      endloop
   endfacet
   facet normal 8.434063e-001 3.799117e-001 3.799117e-001
      outer loop
         vertex 1.399519e+002 7.954951e+001 1.856155e+002
         vertex 1.399519e+002 1.856155e+002 7.954951e+001
         vertex 1.345015e+002 1.913835e+002 8.531745e+001
      endloop
   endfacet
   facet normal 8.191361e-001 4.055958e-001 4.055958e-001
      outer loop
         vertex 1.399519e+002 7.954951e+001 1.856155e+002
         vertex 1.345015e+002 1.913835e+002 8.531745e+001
         vertex 1.345015e+002 8.531746e+001 1.913835e+002
      endloop
   endfacet
   facet normal 7.660623e-001 4.545044e-001 4.545044e-001
      outer loop
         vertex 1.345015e+002 8.531746e+001 1.913835e+002
         vertex 1.345015e+002 1.913835e+002 8.531745e+001
         vertex 1.280330e+002 1.965990e+002 9.053301e+001
      endloop
   endfacet
   facet normal 7.372586e-001 4.777288e-001 4.777288e-001
      outer loop
         vertex 1.345015e+002 8.531746e+001 1.913835e+002
         vertex 1.280330e+002 1.965990e+002 9.053301e+001
         vertex 1.280330e+002 9.053301e+001 1.965990e+002
      endloop
   endfacet
   facet normal 6.756107e-001 5.213206e-001 5.213206e-001
      outer loop
         vertex 1.280330e+002 9.053301e+001 1.965990e+002
         vertex 1.280330e+002 1.965990e+002 9.053301e+001
         vertex 1.206571e+002 2.011729e+002 9.510692e+001
      endloop
   endfacet
   facet normal 6.427664e-001 5.416878e-001 5.416878e-001
      outer loop
         vertex 1.280330e+002 9.053301e+001 1.965990e+002
         vertex 1.206571e+002 2.011729e+002 9.510692e+001
         vertex 1.206571e+002 9.510692e+001 2.011729e+002
      endloop
   endfacet
   facet normal 5.735992e-001 5.792167e-001 5.792167e-001
      outer loop
         vertex 1.206571e+002 9.510692e+001 2.011729e+002
         vertex 1.206571e+002 2.011729e+002 9.510692e+001
         vertex 1.125000e+002 2.050269e+002 9.896094e+001
      endloop
   endfacet
   facet normal 5.372762e-001 5.963783e-001 5.963783e-001
      outer loop
         vertex 1.206571e+002 9.510692e+001 2.011729e+002
         vertex 1.125000e+002 2.050269e+002 9.896094e+001
         vertex 1.125000e+002 9.896095e+001 2.050269e+002
      endloop
   endfacet
   facet normal 4.617732e-001 6.272023e-001 6.272023e-001
      outer loop
         vertex 1.125000e+002 9.896095e+001 2.050269e+002
         vertex 1.125000e+002 2.050269e+002 9.896094e+001
         vertex 1.037013e+002 2.080951e+002 1.020291e+002
      endloop
   endfacet
   facet normal 4.225931e-001 6.408647e-001 6.408647e-001
      outer loop
         vertex 1.125000e+002 9.896095e+001 2.050269e+002
         vertex 1.037013e+002 2.080951e+002 1.020291e+002
         vertex 1.037013e+002 1.020291e+002 2.080951e+002
      endloop
   endfacet
   facet normal 3.420462e-001 6.644563e-001 6.644563e-001
      outer loop
         vertex 1.037013e+002 1.020291e+002 2.080951e+002
         vertex 1.037013e+002 2.080951e+002 1.020291e+002
         vertex 9.441143e+001 2.103250e+002 1.042590e+002
      endloop
   endfacet
   facet normal 3.006793e-001 6.743856e-001 6.743856e-001
      outer loop
         vertex 1.037013e+002 1.020291e+002 2.080951e+002
         vertex 9.441143e+001 2.103250e+002 1.042590e+002
         vertex 9.441143e+001 1.042590e+002 2.103250e+002
      endloop
   endfacet
   facet normal 2.164667e-001 6.903413e-001 6.903413e-001
      outer loop
         vertex 9.441143e+001 1.042590e+002 2.103250e+002
         vertex 9.441143e+001 2.103250e+002 1.042590e+002
         vertex 8.478947e+001 2.116783e+002 1.056123e+002
      endloop
   endfacet
   facet normal 1.736208e-001 6.963677e-001 6.963677e-001
      outer loop
         vertex 9.441143e+001 1.042590e+002 2.103250e+002
         vertex 8.478947e+001 2.116783e+002 1.056123e+002
         vertex 8.478947e+001 1.056123e+002 2.116783e+002
      endloop
   endfacet
   facet normal 8.718336e-002 7.044143e-001 7.044143e-001
      outer loop
         vertex 8.478947e+001 1.056123e+002 2.116783e+002
         vertex 8.478947e+001 2.116783e+002 1.056123e+002
         vertex 7.500000e+001 2.121320e+002 1.060660e+002
      endloop
   endfacet
   facet normal 4.359168e-002 7.064346e-001 7.064346e-001
      outer loop
         vertex 8.478947e+001 1.056123e+002 2.116783e+002
         vertex 7.500000e+001 2.121320e+002 1.060660e+002
         vertex 7.500000e+001 1.060660e+002 2.121320e+002
      endloop
   endfacet
   facet normal -4.359168e-002 7.064346e-001 7.064346e-001
      outer loop
         vertex 7.500000e+001 1.060660e+002 2.121320e+002
         vertex 7.500000e+001 2.121320e+002 1.060660e+002
         vertex 6.521053e+001 2.116783e+002 1.056123e+002
      endloop
   endfacet
   facet normal -8.718336e-002 7.044143e-001 7.044143e-001
      outer loop
         vertex 7.500000e+001 1.060660e+002 2.121320e+002
         vertex 6.521053e+001 2.116783e+002 1.056123e+002
         vertex 6.521053e+001 1.056123e+002 2.116783e+002
      endloop
   endfacet
   facet normal -1.736209e-001 6.963676e-001 6.963676e-001
      outer loop
         vertex 6.521053e+001 1.056123e+002 2.116783e+002
         vertex 6.521053e+001 2.116783e+002 1.056123e+002
         vertex 5.558857e+001 2.103250e+002 1.042590e+002
      endloop
   endfacet
   facet normal -2.164667e-001 6.903413e-001 6.903413e-001
      outer loop
         vertex 6.521053e+001 1.056123e+002 2.116783e+002
         vertex 5.558857e+001 2.103250e+002 1.042590e+002
         vertex 5.558857e+001 1.042590e+002 2.103250e+002
      endloop
   endfacet
   facet normal -3.006793e-001 6.743856e-001 6.743856e-001
      outer loop
         vertex 5.558857e+001 1.042590e+002 2.103250e+002
         vertex 5.558857e+001 2.103250e+002 1.042590e+002
         vertex 4.629874e+001 2.080951e+002 1.020291e+002
      endloop
   endfacet
   facet normal -3.420462e-001 6.644563e-001 6.644563e-001
      outer loop
         vertex 5.558857e+001 1.042590e+002 2.103250e+002
         vertex 4.629874e+001 2.080951e+002 1.020291e+002
         vertex 4.629874e+001 1.020291e+002 2.080951e+002
      endloop
   endfacet
   facet normal -4.225931e-001 6.408647e-001 6.408647e-001
      outer loop
         vertex 4.629874e+001 1.020291e+002 2.080951e+002
         vertex 4.629874e+001 2.080951e+002 1.020291e+002
         vertex 3.750000e+001 2.050269e+002 9.896094e+001
      endloop
   endfacet
   facet normal -4.617732e-001 6.272023e-001 6.272023e-001
      outer loop
         vertex 4.629874e+001 1.020291e+002 2.080951e+002
         vertex 3.750000e+001 2.050269e+002 9.896094e+001
         vertex 3.750000e+001 9.896095e+001 2.050269e+002
      endloop
   endfacet
   facet normal -5.372762e-001 5.963783e-001 5.963783e-001
      outer loop
         vertex 3.750000e+001 9.896095e+001 2.050269e+002
         vertex 3.750000e+001 2.050269e+002 9.896094e+001
         vertex 2.934290e+001 2.011729e+002 9.510692e+001
      endloop
   endfacet
   facet normal -5.735992e-001 5.792167e-001 5.792167e-001
      outer loop
         vertex 3.750000e+001 9.896095e+001 2.050269e+002
         vertex 2.934290e+001 2.011729e+002 9.510692e+001
         vertex 2.934290e+001 9.510692e+001 2.011729e+002
      endloop
   endfacet
   facet normal -6.427664e-001 5.416878e-001 5.416878e-001
      outer loop
         vertex 2.934290e+001 9.510692e+001 2.011729e+002
         vertex 2.934290e+001 2.011729e+002 9.510692e+001
         vertex 2.196699e+001 1.965990e+002 9.053301e+001
      endloop
   endfacet
   facet normal -6.756107e-001 5.213206e-001 5.213206e-001
      outer loop
         vertex 2.934290e+001 9.510692e+001 2.011729e+002
         vertex 2.196699e+001 1.965990e+002 9.053301e+001
         vertex 2.196699e+001 9.053301e+001 1.965990e+002
      endloop
   endfacet
   facet normal -7.372586e-001 4.777289e-001 4.777289e-001
      outer loop
         vertex 2.196699e+001 9.053301e+001 1.965990e+002
         vertex 2.196699e+001 1.965990e+002 9.053301e+001
         vertex 1.549850e+001 1.913835e+002 8.531745e+001
      endloop
   endfacet
   facet normal -7.660623e-001 4.545044e-001 4.545044e-001
      outer loop
         vertex 2.196699e+001 9.053301e+001 1.965990e+002
         vertex 1.549850e+001 1.913835e+002 8.531745e+001
         vertex 1.549850e+001 8.531746e+001 1.913835e+002
      endloop
   endfacet
   facet normal -8.191361e-001 4.055958e-001 4.055958e-001
      outer loop
         vertex 1.549850e+001 8.531746e+001 1.913835e+002
         vertex 1.549850e+001 1.913835e+002 8.531745e+001
         vertex 1.004810e+001 1.856155e+002 7.954951e+001
      endloop
   endfacet
   facet normal -8.434064e-001 3.799116e-001 3.799116e-001
      outer loop
         vertex 1.549850e+001 8.531746e+001 1.913835e+002
         vertex 1.004810e+001 1.856155e+002 7.954951e+001
         vertex 1.004810e+001 7.954951e+001 1.856155e+002
      endloop
   endfacet
   facet normal -8.869980e-001 3.265229e-001 3.265229e-001
      outer loop
         vertex 1.004810e+001 7.954951e+001 1.856155e+002
         vertex 1.004810e+001 1.856155e+002 7.954951e+001
         vertex 5.709037e+000 1.793939e+002 7.332786e+001
      endloop
   endfacet
   facet normal -9.063195e-001 2.988185e-001 2.988185e-001
      outer loop
         vertex 1.004810e+001 7.954951e+001 1.856155e+002
         vertex 5.709037e+000 1.793939e+002 7.332786e+001
         vertex 5.709037e+000 7.332786e+001 1.793939e+002
      endloop
   endfacet
   facet normal -9.396831e-001 2.418632e-001 2.418632e-001
      outer loop
         vertex 5.709037e+000 7.332786e+001 1.793939e+002
         vertex 5.709037e+000 1.793939e+002 7.332786e+001
         vertex 2.555564e+000 1.728250e+002 6.675896e+001
      endloop
   endfacet
   facet normal -9.537253e-001 2.126125e-001 2.126125e-001
      outer loop
         vertex 5.709037e+000 7.332786e+001 1.793939e+002
         vertex 2.555564e+000 1.728250e+002 6.675896e+001
         vertex 2.555564e+000 6.675896e+001 1.728250e+002
      endloop
   endfacet
   facet normal -9.762900e-001 1.530651e-001 1.530651e-001
      outer loop
         vertex 2.555564e+000 6.675896e+001 1.728250e+002
         vertex 2.555564e+000 1.728250e+002 6.675896e+001
         vertex 6.416366e-001 1.660212e+002 5.995520e+001
      endloop
   endfacet
   facet normal -9.848126e-001 1.227685e-001 1.227685e-001
      outer loop
         vertex 2.555564e+000 6.675896e+001 1.728250e+002
         vertex 6.416366e-001 1.660212e+002 5.995520e+001
         vertex 6.416366e-001 5.995520e+001 1.660212e+002
      endloop
   endfacet
   facet normal -9.961922e-001 6.164795e-002 6.164795e-002
      outer loop
         vertex 6.416366e-001 5.995520e+001 1.660212e+002
         vertex 6.416366e-001 1.660212e+002 5.995520e+001
         vertex 0.000000e+000 1.590990e+002 5.303301e+001
      endloop
   endfacet
   facet normal 0.000000e+000 -7.071068e-001 7.071068e-001
      outer loop
         vertex 1.280330e+002 9.053301e+001 1.965990e+002
         vertex 1.206571e+002 9.510692e+001 2.011729e+002
         vertex 1.493584e+002 4.611081e+001 1.521768e+002
      endloop
   endfacet
   facet normal 0.000000e+000 -7.071068e-001 7.071068e-001
      outer loop
         vertex 8.478947e+001 1.056123e+002 2.116783e+002
         vertex 5.558857e+001 1.807056e+000 1.078731e+002
         vertex 9.441143e+001 1.042590e+002 2.103250e+002
      endloop
   endfacet
   facet normal 0.000000e+000 -7.071068e-001 7.071068e-001
      outer loop
         vertex 9.441143e+001 1.042590e+002 2.103250e+002
         vertex 5.558857e+001 1.807056e+000 1.078731e+002
         vertex 6.521053e+001 4.537031e-001 1.065197e+002
      endloop
   endfacet
   facet normal 0.000000e+000 -7.071068e-001 7.071068e-001
      outer loop
         vertex 8.478947e+001 1.056123e+002 2.116783e+002
         vertex 7.500000e+001 1.060660e+002 2.121320e+002
         vertex 5.558857e+001 1.807056e+000 1.078731e+002
      endloop
   endfacet
   facet normal 0.000000e+000 -7.071068e-001 7.071068e-001
      outer loop
         vertex 5.558857e+001 1.807056e+000 1.078731e+002
         vertex 7.500000e+001 1.060660e+002 2.121320e+002
         vertex 6.521053e+001 1.056123e+002 2.116783e+002
      endloop
   endfacet
   facet normal 0.000000e+000 -7.071068e-001 7.071068e-001
      outer loop
         vertex 5.558857e+001 1.807056e+000 1.078731e+002
         vertex 6.521053e+001 1.056123e+002 2.116783e+002
         vertex 5.558857e+001 1.042590e+002 2.103250e+002
      endloop
   endfacet
   facet normal 0.000000e+000 -7.071068e-001 7.071068e-001
      outer loop
         vertex 6.521053e+001 4.537031e-001 1.065197e+002
         vertex 7.500000e+001 0.000000e+000 1.060660e+002
         vertex 9.441143e+001 1.042590e+002 2.103250e+002
      endloop
   endfacet
   facet normal 0.000000e+000 -7.071068e-001 7.071068e-001
      outer loop
         vertex 9.441143e+001 1.042590e+002 2.103250e+002
         vertex 7.500000e+001 0.000000e+000 1.060660e+002
         vertex 8.478947e+001 4.537031e-001 1.065197e+002
      endloop
   endfacet
   facet normal 0.000000e+000 -7.071068e-001 7.071068e-001
      outer loop
         vertex 9.441143e+001 1.042590e+002 2.103250e+002
         vertex 8.478947e+001 4.537031e-001 1.065197e+002
         vertex 9.441143e+001 1.807056e+000 1.078731e+002
      endloop
   endfacet
   facet normal 0.000000e+000 -7.071068e-001 7.071068e-001
      outer loop
         vertex 1.206571e+002 9.510692e+001 2.011729e+002
         vertex 1.125000e+002 9.896095e+001 2.050269e+002
         vertex 1.206571e+002 1.095910e+001 1.170251e+002
      endloop
   endfacet
   facet normal 0.000000e+000 -7.071068e-001 7.071068e-001
      outer loop
         vertex 1.206571e+002 1.095910e+001 1.170251e+002
         vertex 1.125000e+002 9.896095e+001 2.050269e+002
         vertex 1.037013e+002 1.020291e+002 2.080951e+002
      endloop
   endfacet
   facet normal 0.000000e+000 -7.071068e-001 7.071068e-001
      outer loop
         vertex 1.206571e+002 1.095910e+001 1.170251e+002
         vertex 1.037013e+002 1.020291e+002 2.080951e+002
         vertex 9.441143e+001 1.042590e+002 2.103250e+002
      endloop
   endfacet
   facet normal 0.000000e+000 -7.071068e-001 7.071068e-001
      outer loop
         vertex 1.549850e+001 8.531746e+001 1.913835e+002
         vertex 2.934290e+001 1.095910e+001 1.170251e+002
         vertex 3.750000e+001 7.105075e+000 1.131711e+002
      endloop
   endfacet
   facet normal 0.000000e+000 -7.071068e-001 7.071068e-001
      outer loop
         vertex 9.441143e+001 1.807056e+000 1.078731e+002
         vertex 1.037013e+002 4.036896e+000 1.101029e+002
         vertex 9.441143e+001 1.042590e+002 2.103250e+002
      endloop
   endfacet
   facet normal 0.000000e+000 -7.071068e-001 7.071068e-001
      outer loop
         vertex 9.441143e+001 1.042590e+002 2.103250e+002
         vertex 1.037013e+002 4.036896e+000 1.101029e+002
         vertex 1.125000e+002 7.105075e+000 1.131711e+002
      endloop
   endfacet
   facet normal 0.000000e+000 -7.071068e-001 7.071068e-001
      outer loop
         vertex 9.441143e+001 1.042590e+002 2.103250e+002
         vertex 1.125000e+002 7.105075e+000 1.131711e+002
         vertex 1.206571e+002 1.095910e+001 1.170251e+002
      endloop
   endfacet
   facet normal 0.000000e+000 -7.071068e-001 7.071068e-001
      outer loop
         vertex 1.206571e+002 1.095910e+001 1.170251e+002
         vertex 1.280330e+002 1.553301e+001 1.215990e+002
         vertex 1.206571e+002 9.510692e+001 2.011729e+002
      endloop
   endfacet
   facet normal 0.000000e+000 -7.071068e-001 7.071068e-001
      outer loop
         vertex 1.206571e+002 9.510692e+001 2.011729e+002
         vertex 1.280330e+002 1.553301e+001 1.215990e+002
         vertex 1.345015e+002 2.074856e+001 1.268146e+002
      endloop
   endfacet
   facet normal 0.000000e+000 -7.071068e-001 7.071068e-001
      outer loop
         vertex 1.206571e+002 9.510692e+001 2.011729e+002
         vertex 1.345015e+002 2.074856e+001 1.268146e+002
         vertex 1.399519e+002 2.651650e+001 1.325825e+002
      endloop
   endfacet
   facet normal 0.000000e+000 -7.071068e-001 7.071068e-001
      outer loop
         vertex 5.558857e+001 1.042590e+002 2.103250e+002
         vertex 4.629874e+001 1.020291e+002 2.080951e+002
         vertex 5.558857e+001 1.807056e+000 1.078731e+002
      endloop
   endfacet
   facet normal 0.000000e+000 -7.071068e-001 7.071068e-001
      outer loop
         vertex 5.558857e+001 1.807056e+000 1.078731e+002
         vertex 4.629874e+001 1.020291e+002 2.080951e+002
         vertex 3.750000e+001 9.896095e+001 2.050269e+002
      endloop
   endfacet
   facet normal 0.000000e+000 -7.071068e-001 7.071068e-001
      outer loop
         vertex 5.558857e+001 1.807056e+000 1.078731e+002
         vertex 3.750000e+001 9.896095e+001 2.050269e+002
         vertex 2.934290e+001 9.510692e+001 2.011729e+002
      endloop
   endfacet
   facet normal 0.000000e+000 -7.071068e-001 7.071068e-001
      outer loop
         vertex 3.750000e+001 7.105075e+000 1.131711e+002
         vertex 4.629874e+001 4.036896e+000 1.101029e+002
         vertex 1.549850e+001 8.531746e+001 1.913835e+002
      endloop
   endfacet
   facet normal 0.000000e+000 -7.071068e-001 7.071068e-001
      outer loop
         vertex 1.549850e+001 8.531746e+001 1.913835e+002
         vertex 4.629874e+001 4.036896e+000 1.101029e+002
         vertex 5.558857e+001 1.807056e+000 1.078731e+002
      endloop
   endfacet
   facet normal 0.000000e+000 -7.071068e-001 7.071068e-001
      outer loop
         vertex 1.549850e+001 8.531746e+001 1.913835e+002
         vertex 5.558857e+001 1.807056e+000 1.078731e+002
         vertex 2.196699e+001 9.053301e+001 1.965990e+002
      endloop
   endfacet
   facet normal 0.000000e+000 -7.071068e-001 7.071068e-001
      outer loop
         vertex 2.196699e+001 9.053301e+001 1.965990e+002
         vertex 5.558857e+001 1.807056e+000 1.078731e+002
         vertex 2.934290e+001 9.510692e+001 2.011729e+002
      endloop
   endfacet
   facet normal 0.000000e+000 -7.071068e-001 7.071068e-001
      outer loop
         vertex 1.399519e+002 2.651650e+001 1.325825e+002
         vertex 1.442910e+002 3.273816e+001 1.388042e+002
         vertex 1.206571e+002 9.510692e+001 2.011729e+002
      endloop
   endfacet
   facet normal 0.000000e+000 -7.071068e-001 7.071068e-001
      outer loop
         vertex 1.206571e+002 9.510692e+001 2.011729e+002
         vertex 1.442910e+002 3.273816e+001 1.388042e+002
         vertex 1.474444e+002 3.930706e+001 1.453731e+002
      endloop
   endfacet
   facet normal 0.000000e+000 -7.071068e-001 7.071068e-001
      outer loop
         vertex 1.206571e+002 9.510692e+001 2.011729e+002
         vertex 1.474444e+002 3.930706e+001 1.453731e+002
         vertex 1.493584e+002 4.611081e+001 1.521768e+002
      endloop
   endfacet
   facet normal 0.000000e+000 -7.071068e-001 7.071068e-001
      outer loop
         vertex 1.474444e+002 6.675896e+001 1.728250e+002
         vertex 1.442910e+002 7.332786e+001 1.793939e+002
         vertex 1.493584e+002 5.995520e+001 1.660212e+002
      endloop
   endfacet
   facet normal 0.000000e+000 -7.071068e-001 7.071068e-001
      outer loop
         vertex 1.493584e+002 5.995520e+001 1.660212e+002
         vertex 1.442910e+002 7.332786e+001 1.793939e+002
         vertex 1.399519e+002 7.954951e+001 1.856155e+002
      endloop
   endfacet
   facet normal 0.000000e+000 -7.071068e-001 7.071068e-001
      outer loop
         vertex 1.493584e+002 5.995520e+001 1.660212e+002
         vertex 1.399519e+002 7.954951e+001 1.856155e+002
         vertex 1.500000e+002 5.303301e+001 1.590990e+002
      endloop
   endfacet
   facet normal 0.000000e+000 -7.071068e-001 7.071068e-001
      outer loop
         vertex 1.500000e+002 5.303301e+001 1.590990e+002
         vertex 1.399519e+002 7.954951e+001 1.856155e+002
         vertex 1.493584e+002 4.611081e+001 1.521768e+002
      endloop
   endfacet
   facet normal 0.000000e+000 -7.071068e-001 7.071068e-001
      outer loop
         vertex 1.493584e+002 4.611081e+001 1.521768e+002
         vertex 1.399519e+002 7.954951e+001 1.856155e+002
         vertex 1.345015e+002 8.531746e+001 1.913835e+002
      endloop
   endfacet
   facet normal 0.000000e+000 -7.071068e-001 7.071068e-001
      outer loop
         vertex 1.493584e+002 4.611081e+001 1.521768e+002
         vertex 1.345015e+002 8.531746e+001 1.913835e+002
         vertex 1.280330e+002 9.053301e+001 1.965990e+002
      endloop
   endfacet
   facet normal 0.000000e+000 -7.071068e-001 7.071068e-001
      outer loop
         vertex 2.555564e+000 6.675896e+001 1.728250e+002
         vertex 6.416366e-001 5.995520e+001 1.660212e+002
         vertex 0.000000e+000 5.303301e+001 1.590990e+002
      endloop
   endfacet
   facet normal 0.000000e+000 -7.071068e-001 7.071068e-001
      outer loop
         vertex 5.709037e+000 7.332786e+001 1.793939e+002
         vertex 1.004810e+001 2.651650e+001 1.325825e+002
         vertex 1.549850e+001 2.074856e+001 1.268146e+002
      endloop
   endfacet
   facet normal 0.000000e+000 -7.071068e-001 7.071068e-001
      outer loop
         vertex 0.000000e+000 5.303301e+001 1.590990e+002
         vertex 6.416366e-001 4.611081e+001 1.521768e+002
         vertex 2.555564e+000 6.675896e+001 1.728250e+002
      endloop
   endfacet
   facet normal 0.000000e+000 -7.071068e-001 7.071068e-001
      outer loop
         vertex 2.555564e+000 6.675896e+001 1.728250e+002
         vertex 6.416366e-001 4.611081e+001 1.521768e+002
         vertex 2.555564e+000 3.930706e+001 1.453731e+002
      endloop
   endfacet
   facet normal 0.000000e+000 -7.071068e-001 7.071068e-001
      outer loop
         vertex 2.555564e+000 6.675896e+001 1.728250e+002
         vertex 2.555564e+000 3.930706e+001 1.453731e+002
         vertex 5.709037e+000 7.332786e+001 1.793939e+002
      endloop
   endfacet
   facet normal 0.000000e+000 -7.071068e-001 7.071068e-001
      outer loop
         vertex 5.709037e+000 7.332786e+001 1.793939e+002
         vertex 2.555564e+000 3.930706e+001 1.453731e+002
         vertex 5.709037e+000 3.273816e+001 1.388042e+002
      endloop
   endfacet
   facet normal 0.000000e+000 -7.071068e-001 7.071068e-001
      outer loop
         vertex 5.709037e+000 7.332786e+001 1.793939e+002
         vertex 5.709037e+000 3.273816e+001 1.388042e+002
         vertex 1.004810e+001 2.651650e+001 1.325825e+002
      endloop
   endfacet
   facet normal 0.000000e+000 -7.071068e-001 7.071068e-001
      outer loop
         vertex 1.549850e+001 8.531746e+001 1.913835e+002
         vertex 1.004810e+001 7.954951e+001 1.856155e+002
         vertex 2.934290e+001 1.095910e+001 1.170251e+002
      endloop
   endfacet
   facet normal 0.000000e+000 -7.071068e-001 7.071068e-001
      outer loop
         vertex 2.934290e+001 1.095910e+001 1.170251e+002
         vertex 1.004810e+001 7.954951e+001 1.856155e+002
         vertex 5.709037e+000 7.332786e+001 1.793939e+002
      endloop
   endfacet
   facet normal 0.000000e+000 -7.071068e-001 7.071068e-001
      outer loop
         vertex 2.934290e+001 1.095910e+001 1.170251e+002
         vertex 5.709037e+000 7.332786e+001 1.793939e+002
         vertex 2.196699e+001 1.553301e+001 1.215990e+002
      endloop
   endfacet
   facet normal 0.000000e+000 -7.071068e-001 7.071068e-001
      outer loop
         vertex 2.196699e+001 1.553301e+001 1.215990e+002
         vertex 5.709037e+000 7.332786e+001 1.793939e+002
         vertex 1.549850e+001 2.074856e+001 1.268146e+002
      endloop
   endfacet
   facet normal 0.000000e+000 7.071068e-001 -7.071068e-001
      outer loop
         vertex 5.558857e+001 2.103250e+002 1.042590e+002
         vertex 6.521053e+001 2.116783e+002 1.056123e+002
         vertex 8.478947e+001 1.065197e+002 4.537050e-001
      endloop
   endfacet
   facet normal 0.000000e+000 7.071068e-001 -7.071068e-001
      outer loop
         vertex 8.478947e+001 1.065197e+002 4.537050e-001
         vertex 6.521053e+001 2.116783e+002 1.056123e+002
         vertex 7.500000e+001 2.121320e+002 1.060660e+002
      endloop
   endfacet
   facet normal 0.000000e+000 7.071068e-001 -7.071068e-001
      outer loop
         vertex 8.478947e+001 1.065197e+002 4.537050e-001
         vertex 7.500000e+001 2.121320e+002 1.060660e+002
         vertex 8.478947e+001 2.116783e+002 1.056123e+002
      endloop
   endfacet
   facet normal 0.000000e+000 7.071068e-001 -7.071068e-001
      outer loop
         vertex 8.478947e+001 1.065197e+002 4.537050e-001
         vertex 5.709037e+000 1.793939e+002 7.332786e+001
         vertex 1.004810e+001 1.856155e+002 7.954951e+001
      endloop
   endfacet
   facet normal 0.000000e+000 7.071068e-001 -7.071068e-001
      outer loop
         vertex 8.478947e+001 1.065197e+002 4.537050e-001
         vertex 7.500000e+001 1.060660e+002 0.000000e+000
         vertex 5.709037e+000 1.793939e+002 7.332786e+001
      endloop
   endfacet
   facet normal 0.000000e+000 7.071068e-001 -7.071068e-001
      outer loop
         vertex 5.709037e+000 1.793939e+002 7.332786e+001
         vertex 7.500000e+001 1.060660e+002 0.000000e+000
         vertex 6.521053e+001 1.065197e+002 4.537050e-001
      endloop
   endfacet
   facet normal 0.000000e+000 7.071068e-001 -7.071068e-001
      outer loop
         vertex 5.709037e+000 1.793939e+002 7.332786e+001
         vertex 6.521053e+001 1.065197e+002 4.537050e-001
         vertex 5.558857e+001 1.078731e+002 1.807056e+000
      endloop
   endfacet
   facet normal 0.000000e+000 7.071068e-001 -7.071068e-001
      outer loop
         vertex 8.478947e+001 2.116783e+002 1.056123e+002
         vertex 9.441143e+001 2.103250e+002 1.042590e+002
         vertex 8.478947e+001 1.065197e+002 4.537050e-001
      endloop
   endfacet
   facet normal 0.000000e+000 7.071068e-001 -7.071068e-001
      outer loop
         vertex 8.478947e+001 1.065197e+002 4.537050e-001
         vertex 9.441143e+001 2.103250e+002 1.042590e+002
         vertex 1.037013e+002 2.080951e+002 1.020291e+002
      endloop
   endfacet
   facet normal 0.000000e+000 7.071068e-001 -7.071068e-001
      outer loop
         vertex 8.478947e+001 1.065197e+002 4.537050e-001
         vertex 1.037013e+002 2.080951e+002 1.020291e+002
         vertex 1.125000e+002 2.050269e+002 9.896094e+001
      endloop
   endfacet
   facet normal 0.000000e+000 7.071068e-001 -7.071068e-001
      outer loop
         vertex 1.125000e+002 2.050269e+002 9.896094e+001
         vertex 1.206571e+002 2.011729e+002 9.510692e+001
         vertex 8.478947e+001 1.065197e+002 4.537050e-001
      endloop
   endfacet
   facet normal 0.000000e+000 7.071068e-001 -7.071068e-001
      outer loop
         vertex 8.478947e+001 1.065197e+002 4.537050e-001
         vertex 1.206571e+002 2.011729e+002 9.510692e+001
         vertex 1.280330e+002 1.965990e+002 9.053301e+001
      endloop
   endfacet
   facet normal 0.000000e+000 7.071068e-001 -7.071068e-001
      outer loop
         vertex 8.478947e+001 1.065197e+002 4.537050e-001
         vertex 1.280330e+002 1.965990e+002 9.053301e+001
         vertex 1.345015e+002 1.913835e+002 8.531745e+001
      endloop
   endfacet
   facet normal 0.000000e+000 7.071068e-001 -7.071068e-001
      outer loop
         vertex 1.474444e+002 1.728250e+002 6.675896e+001
         vertex 1.206571e+002 1.170251e+002 1.095909e+001
         vertex 1.442910e+002 1.793939e+002 7.332786e+001
      endloop
   endfacet
   facet normal 0.000000e+000 7.071068e-001 -7.071068e-001
      outer loop
         vertex 1.442910e+002 1.793939e+002 7.332786e+001
         vertex 1.206571e+002 1.170251e+002 1.095909e+001
         vertex 1.125000e+002 1.131711e+002 7.105077e+000
      endloop
   endfacet
   facet normal 0.000000e+000 7.071068e-001 -7.071068e-001
      outer loop
         vertex 1.442910e+002 1.793939e+002 7.332786e+001
         vertex 1.125000e+002 1.131711e+002 7.105077e+000
         vertex 1.037013e+002 1.101029e+002 4.036898e+000
      endloop
   endfacet
   facet normal 0.000000e+000 7.071068e-001 -7.071068e-001
      outer loop
         vertex 5.709037e+000 1.388042e+002 3.273816e+001
         vertex 2.555564e+000 1.453731e+002 3.930706e+001
         vertex 5.558857e+001 1.078731e+002 1.807056e+000
      endloop
   endfacet
   facet normal 0.000000e+000 7.071068e-001 -7.071068e-001
      outer loop
         vertex 5.558857e+001 1.078731e+002 1.807056e+000
         vertex 2.555564e+000 1.453731e+002 3.930706e+001
         vertex 6.416366e-001 1.521768e+002 4.611081e+001
      endloop
   endfacet
   facet normal 0.000000e+000 7.071068e-001 -7.071068e-001
      outer loop
         vertex 5.558857e+001 1.078731e+002 1.807056e+000
         vertex 6.416366e-001 1.521768e+002 4.611081e+001
         vertex 0.000000e+000 1.590990e+002 5.303301e+001
      endloop
   endfacet
   facet normal 0.000000e+000 7.071068e-001 -7.071068e-001
      outer loop
         vertex 1.004810e+001 1.856155e+002 7.954951e+001
         vertex 1.549850e+001 1.913835e+002 8.531745e+001
         vertex 8.478947e+001 1.065197e+002 4.537050e-001
      endloop
   endfacet
   facet normal 0.000000e+000 7.071068e-001 -7.071068e-001
      outer loop
         vertex 8.478947e+001 1.065197e+002 4.537050e-001
         vertex 1.549850e+001 1.913835e+002 8.531745e+001
         vertex 2.196699e+001 1.965990e+002 9.053301e+001
      endloop
   endfacet
   facet normal 0.000000e+000 7.071068e-001 -7.071068e-001
      outer loop
         vertex 8.478947e+001 1.065197e+002 4.537050e-001
         vertex 2.196699e+001 1.965990e+002 9.053301e+001
         vertex 2.934290e+001 2.011729e+002 9.510692e+001
      endloop
   endfacet
   facet normal 0.000000e+000 7.071068e-001 -7.071068e-001
      outer loop
         vertex 2.934290e+001 2.011729e+002 9.510692e+001
         vertex 3.750000e+001 2.050269e+002 9.896094e+001
         vertex 8.478947e+001 1.065197e+002 4.537050e-001
      endloop
   endfacet
   facet normal 0.000000e+000 7.071068e-001 -7.071068e-001
      outer loop
         vertex 8.478947e+001 1.065197e+002 4.537050e-001
         vertex 3.750000e+001 2.050269e+002 9.896094e+001
         vertex 4.629874e+001 2.080951e+002 1.020291e+002
      endloop
   endfacet
   facet normal 0.000000e+000 7.071068e-001 -7.071068e-001
      outer loop
         vertex 8.478947e+001 1.065197e+002 4.537050e-001
         vertex 4.629874e+001 2.080951e+002 1.020291e+002
         vertex 5.558857e+001 2.103250e+002 1.042590e+002
      endloop
   endfacet
   facet normal 0.000000e+000 7.071068e-001 -7.071068e-001
      outer loop
         vertex 1.474444e+002 1.728250e+002 6.675896e+001
         vertex 1.493584e+002 1.660212e+002 5.995520e+001
         vertex 1.206571e+002 1.170251e+002 1.095909e+001
      endloop
   endfacet
   facet normal 0.000000e+000 7.071068e-001 -7.071068e-001
      outer loop
         vertex 1.206571e+002 1.170251e+002 1.095909e+001
         vertex 1.493584e+002 1.660212e+002 5.995520e+001
         vertex 1.500000e+002 1.590990e+002 5.303301e+001
      endloop
   endfacet
   facet normal 0.000000e+000 7.071068e-001 -7.071068e-001
      outer loop
         vertex 1.206571e+002 1.170251e+002 1.095909e+001
         vertex 1.500000e+002 1.590990e+002 5.303301e+001
         vertex 1.493584e+002 1.521768e+002 4.611081e+001
      endloop
   endfacet
   facet normal 0.000000e+000 7.071068e-001 -7.071068e-001
      outer loop
         vertex 1.345015e+002 1.913835e+002 8.531745e+001
         vertex 1.399519e+002 1.856155e+002 7.954951e+001
         vertex 8.478947e+001 1.065197e+002 4.537050e-001
      endloop
   endfacet
   facet normal 0.000000e+000 7.071068e-001 -7.071068e-001
      outer loop
         vertex 8.478947e+001 1.065197e+002 4.537050e-001
         vertex 1.399519e+002 1.856155e+002 7.954951e+001
         vertex 1.442910e+002 1.793939e+002 7.332786e+001
      endloop
   endfacet
   facet normal 0.000000e+000 7.071068e-001 -7.071068e-001
      outer loop
         vertex 8.478947e+001 1.065197e+002 4.537050e-001
         vertex 1.442910e+002 1.793939e+002 7.332786e+001
         vertex 9.441143e+001 1.078731e+002 1.807056e+000
      endloop
   endfacet
   facet normal 0.000000e+000 7.071068e-001 -7.071068e-001
      outer loop
         vertex 9.441143e+001 1.078731e+002 1.807056e+000
         vertex 1.442910e+002 1.793939e+002 7.332786e+001
         vertex 1.037013e+002 1.101029e+002 4.036898e+000
      endloop
   endfacet
   facet normal 0.000000e+000 7.071068e-001 -7.071068e-001
      outer loop
         vertex 4.629874e+001 1.101029e+002 4.036898e+000
         vertex 3.750000e+001 1.131711e+002 7.105077e+000
         vertex 2.934290e+001 1.170251e+002 1.095909e+001
      endloop
   endfacet
   facet normal 0.000000e+000 7.071068e-001 -7.071068e-001
      outer loop
         vertex 0.000000e+000 1.590990e+002 5.303301e+001
         vertex 6.416366e-001 1.660212e+002 5.995520e+001
         vertex 5.558857e+001 1.078731e+002 1.807056e+000
      endloop
   endfacet
   facet normal 0.000000e+000 7.071068e-001 -7.071068e-001
      outer loop
         vertex 5.558857e+001 1.078731e+002 1.807056e+000
         vertex 6.416366e-001 1.660212e+002 5.995520e+001
         vertex 2.555564e+000 1.728250e+002 6.675896e+001
      endloop
   endfacet
   facet normal 0.000000e+000 7.071068e-001 -7.071068e-001
      outer loop
         vertex 5.558857e+001 1.078731e+002 1.807056e+000
         vertex 2.555564e+000 1.728250e+002 6.675896e+001
         vertex 5.709037e+000 1.793939e+002 7.332786e+001
      endloop
   endfacet
   facet normal 0.000000e+000 7.071068e-001 -7.071068e-001
      outer loop
         vertex 2.934290e+001 1.170251e+002 1.095909e+001
         vertex 2.196699e+001 1.215990e+002 1.553301e+001
         vertex 4.629874e+001 1.101029e+002 4.036898e+000
      endloop
   endfacet
   facet normal 0.000000e+000 7.071068e-001 -7.071068e-001
      outer loop
         vertex 4.629874e+001 1.101029e+002 4.036898e+000
         vertex 2.196699e+001 1.215990e+002 1.553301e+001
         vertex 1.549850e+001 1.268146e+002 2.074856e+001
      endloop
   endfacet
   facet normal 0.000000e+000 7.071068e-001 -7.071068e-001
      outer loop
         vertex 4.629874e+001 1.101029e+002 4.036898e+000
         vertex 1.549850e+001 1.268146e+002 2.074856e+001
         vertex 5.558857e+001 1.078731e+002 1.807056e+000
      endloop
   endfacet
   facet normal 0.000000e+000 7.071068e-001 -7.071068e-001
      outer loop
         vertex 5.558857e+001 1.078731e+002 1.807056e+000
         vertex 1.549850e+001 1.268146e+002 2.074856e+001
         vertex 1.004810e+001 1.325825e+002 2.651650e+001
      endloop
   endfacet
   facet normal 0.000000e+000 7.071068e-001 -7.071068e-001
      outer loop
         vertex 5.558857e+001 1.078731e+002 1.807056e+000
         vertex 1.004810e+001 1.325825e+002 2.651650e+001
         vertex 5.709037e+000 1.388042e+002 3.273816e+001
      endloop
   endfacet
   facet normal 0.000000e+000 7.071068e-001 -7.071068e-001
      outer loop
         vertex 1.399519e+002 1.325825e+002 2.651650e+001
         vertex 1.493584e+002 1.521768e+002 4.611081e+001
         vertex 1.442910e+002 1.388042e+002 3.273816e+001
      endloop
   endfacet
   facet normal 0.000000e+000 7.071068e-001 -7.071068e-001
      outer loop
         vertex 1.442910e+002 1.388042e+002 3.273816e+001
         vertex 1.493584e+002 1.521768e+002 4.611081e+001
         vertex 1.474444e+002 1.453731e+002 3.930706e+001
      endloop
   endfacet
   facet normal 0.000000e+000 7.071068e-001 -7.071068e-001
      outer loop
         vertex 1.399519e+002 1.325825e+002 2.651650e+001
         vertex 1.345015e+002 1.268146e+002 2.074856e+001
         vertex 1.493584e+002 1.521768e+002 4.611081e+001
      endloop
   endfacet
   facet normal 0.000000e+000 7.071068e-001 -7.071068e-001
      outer loop
         vertex 1.493584e+002 1.521768e+002 4.611081e+001
         vertex 1.345015e+002 1.268146e+002 2.074856e+001
         vertex 1.280330e+002 1.215990e+002 1.553301e+001
      endloop
   endfacet
   facet normal 0.000000e+000 7.071068e-001 -7.071068e-001
      outer loop
         vertex 1.493584e+002 1.521768e+002 4.611081e+001
         vertex 1.280330e+002 1.215990e+002 1.553301e+001
         vertex 1.206571e+002 1.170251e+002 1.095909e+001
      endloop
   endfacet
endsolid